<svg width="21" height="21" viewBox="0 0 21 21" fill="none" xmlns="http://www.w3.org/2000/svg">
<g clip-path="url(#clip0_1_1621)">
<path d="M10.7309 10.6199C10.9487 10.6199 11.1255 10.4431 11.1255 10.2252C11.1255 10.0074 10.9487 9.83057 10.7309 9.83057C10.513 9.83057 10.3362 10.0074 10.3362 10.2252C10.3362 10.4431 10.513 10.6199 10.7309 10.6199Z" fill="black"/>
<path d="M19.2535 7.46261H16.9196L13.3293 2.5232C13.0068 1.9705 12.2964 1.77378 11.7321 2.08628C11.1601 2.40402 10.9545 3.12445 11.2724 3.69657C11.2815 3.71276 11.2915 3.72833 11.3027 3.74313L14.1188 7.46261H7.33844L10.1545 3.74313C10.1656 3.72833 10.1758 3.71276 10.1849 3.69657C10.502 3.12584 10.2986 2.40479 9.72466 2.08597C9.16164 1.77409 8.45123 1.97065 8.12809 2.52289L4.53765 7.46261H2.20369C1.33325 7.46261 0.625 8.17086 0.625 9.0413C0.625 9.72781 1.07055 10.3255 1.69817 10.537C1.76508 10.5888 1.84864 10.62 1.9396 10.62C1.95779 10.62 1.9749 10.6211 1.99279 10.6235C2.16268 10.6464 2.29727 10.7752 2.3281 10.9439L3.67076 18.3307C3.77328 18.8939 4.26323 19.3028 4.83581 19.3028H16.6214C17.194 19.3028 17.6839 18.8939 17.7865 18.3306L19.1291 10.9441C19.1599 10.7752 19.2947 10.6464 19.4652 10.6235C19.4825 10.6211 19.4996 10.62 19.5176 10.62C19.6092 10.62 19.6934 10.5885 19.7603 10.5361C20.3884 10.3232 20.8322 9.72658 20.8322 9.0413C20.8322 8.17086 20.124 7.46261 19.2535 7.46261ZM11.9516 3.2925C11.8614 3.1058 11.9314 2.8784 12.1149 2.77665C12.3059 2.67074 12.5467 2.73903 12.652 2.92881C12.6597 2.943 12.6685 2.95656 12.6779 2.96951L15.9437 7.46261H15.1087L11.9516 3.2925ZM8.7793 2.96967C8.7887 2.95672 8.79718 2.94331 8.80504 2.92943C8.91065 2.73949 9.15162 2.67104 9.34186 2.77634C9.52563 2.8784 9.59593 3.10549 9.50559 3.2925L6.34852 7.46261H5.51354L8.7793 2.96967ZM19.2535 9.83064H12.3073C12.0893 9.83064 11.9126 10.0073 11.9126 10.2253C11.9126 10.4433 12.0893 10.616 12.3073 10.616H18.401C18.3803 10.6749 18.364 10.7359 18.3526 10.7988L17.0098 18.1894C16.9757 18.3771 16.8123 18.5134 16.6214 18.5134H4.83581C4.6448 18.5134 4.48153 18.3771 4.44731 18.1895L3.10465 10.8027C3.09324 10.7398 3.0769 10.6787 3.05624 10.62H9.14992C9.36792 10.62 9.54459 10.4433 9.54459 10.2253C9.54459 10.0073 9.36792 9.83064 9.14992 9.83064H2.20369C1.76477 9.83064 1.41434 9.47297 1.41434 9.0413C1.41434 8.60608 1.76847 8.25196 2.20369 8.25196H19.2535C19.6887 8.25196 20.0429 8.60608 20.0429 9.0413C20.0429 9.4796 19.6843 9.83064 19.2535 9.83064Z" fill="black"/>
<path d="M10.7309 11.804C10.078 11.804 9.54688 12.3351 9.54688 12.988V16.1453C9.54688 16.7983 10.078 17.3294 10.7309 17.3294C11.3838 17.3294 11.9149 16.7983 11.9149 16.1453V12.988C11.9149 12.3338 11.385 11.804 10.7309 11.804ZM11.1256 16.1453C11.1256 16.363 10.9486 16.54 10.7309 16.54C10.5132 16.54 10.3362 16.363 10.3362 16.1453V12.988C10.3362 12.7703 10.5132 12.5933 10.7309 12.5933C10.9487 12.5933 11.1256 12.7701 11.1256 12.988V16.1453Z" fill="black"/>
<path d="M14.6755 17.3294C15.3284 17.3294 15.8595 16.7983 15.8595 16.1453V12.988C15.8595 12.3338 15.3296 11.804 14.6755 11.804C14.0226 11.804 13.4915 12.3351 13.4915 12.988V16.1453C13.4915 16.7983 14.0226 17.3294 14.6755 17.3294ZM14.2808 12.988C14.2808 12.7703 14.4578 12.5933 14.6755 12.5933C14.8933 12.5933 15.0701 12.7701 15.0701 12.988V16.1453C15.0701 16.363 14.8932 16.54 14.6755 16.54C14.4578 16.54 14.2808 16.363 14.2808 16.1453V12.988Z" fill="black"/>
<path d="M6.78192 11.804C6.12901 11.804 5.5979 12.3351 5.5979 12.988V16.1453C5.5979 16.7983 6.12901 17.3294 6.78192 17.3294C7.43482 17.3294 7.96593 16.7983 7.96593 16.1453V12.988C7.96593 12.3338 7.43606 11.804 6.78192 11.804ZM7.17659 16.1453C7.17659 16.363 6.9996 16.54 6.78192 16.54C6.56423 16.54 6.38724 16.363 6.38724 16.1453V12.988C6.38724 12.7703 6.56423 12.5933 6.78192 12.5933C6.99976 12.5933 7.17659 12.77 7.17659 12.988V16.1453Z" fill="black"/>
</g>
<defs>
<clipPath id="clip0_1_1621">
<rect width="20.2073" height="20.2073" fill="white" transform="translate(0.625 0.516846)"/>
</clipPath>
</defs>
</svg>
