<svg width="21" height="21" viewBox="0 0 21 21" fill="none" xmlns="http://www.w3.org/2000/svg">
<path d="M19.0708 6.79789C18.5539 4.19758 16.7055 2.52147 14.3244 2.52147C12.993 2.52147 11.5518 3.06973 10.142 4.10359C8.71654 3.0384 7.2754 2.49014 5.92825 2.49014C3.54724 2.49014 1.68316 4.18191 1.1819 6.81356C0.43 10.714 2.84234 15.899 9.90705 18.7186C9.98537 18.7499 10.0637 18.7656 10.142 18.7656C10.2203 18.7656 10.2987 18.7499 10.377 18.7186C17.426 15.8363 19.8227 10.667 19.0708 6.79789ZM10.142 17.4341C3.93886 14.8651 1.79281 10.3851 2.43506 7.04852C2.81101 5.05913 4.18949 3.75897 5.92825 3.75897C7.10309 3.75897 8.41892 4.32289 9.73474 5.40375C9.9697 5.59172 10.2987 5.59172 10.5336 5.40375C11.8494 4.35422 13.1496 3.80596 14.3244 3.80596C16.0632 3.80596 17.426 5.07479 17.8176 7.04852C18.4599 10.3537 16.3295 14.8181 10.142 17.4341Z" fill="black"/>
</svg>
