<svg width="258" height="258" viewBox="0 0 258 258" fill="none" xmlns="http://www.w3.org/2000/svg">
<g clip-path="url(#clip0_29_576)">
<path d="M128.98 13.12C64.98 13.12 13.11 64.99 13.11 128.99C13.11 192.99 64.98 244.82 128.98 244.82C192.98 244.82 244.81 192.95 244.81 128.99C244.81 65.03 192.93 13.12 128.98 13.12ZM86.83 222.78C83.82 221.47 80.55 219.86 77.1 217.85C73.7 215.84 70.73 213.84 68.11 211.87V138.1C60.82 138.1 52.93 138.49 45.64 138.49C45.6 142.98 46.73 149.88 50 158.12C52.75 165.06 55.85 170.42 58.59 173.56C53.22 177.22 47.86 180.85 42.45 184.51C39.31 179.71 16.19 143.24 30.19 98.22C43.71 54.68 81.28 37.54 86.82 35.14V222.77L86.83 222.78ZM159.3 227.32C156.46 228.19 153.28 229.02 149.79 229.72C146.61 230.37 143.64 230.85 140.89 231.12V133.66H118.47V231.21C115.42 230.95 111.97 230.51 108.26 229.77C104.94 229.07 101.89 228.33 99.19 227.5V30.48C105.56 28.08 115.55 26.25 128.03 26.03C141.77 25.81 152.68 28.21 159.31 30.7V227.32H159.3ZM199.3 173.57C202.05 170.43 205.1 165.06 207.89 158.13C211.16 149.89 212.3 142.99 212.25 138.5C204.96 138.5 197.02 138.11 189.74 138.11V211.88C187.17 213.84 184.16 215.85 180.75 217.86C177.3 219.87 174.03 221.48 171.07 222.79V35.15C176.61 37.55 214.17 54.69 227.7 98.23C241.66 143.25 218.58 179.72 215.4 184.52C210.03 180.86 204.67 177.23 199.3 173.57Z" fill="white"/>
<path d="M255.1 128.97H252.26C252.26 163.03 238.46 193.83 216.15 216.15C193.83 238.47 163.02 252.26 128.97 252.26C94.91 252.26 64.11 238.46 41.79 216.15C19.47 193.83 5.68 163.02 5.68 128.97C5.68 94.91 19.48 64.11 41.79 41.79C64.11 19.47 94.91 5.67 128.97 5.67C163.02 5.67 193.83 19.47 216.15 41.78C238.47 64.1 252.26 94.91 252.26 128.96H257.93C257.93 57.74 200.19 0 128.97 0C57.74 0 0 57.74 0 128.97C0 200.2 57.74 257.93 128.97 257.94C200.2 257.94 257.93 200.2 257.94 128.97H255.1Z" fill="white"/>
<path d="M68.13 72.97C63.88 76.69 57.02 83.66 51.98 94.43C47.41 104.2 46.23 113.03 45.93 118.49H68.13V72.97Z" fill="white"/>
<path d="M189.76 72.97C194.01 76.69 200.87 83.66 205.91 94.43C210.48 104.2 211.66 113.03 211.96 118.49H189.76V72.97Z" fill="white"/>
<path d="M117.96 118.49H140.18V46.36C137.61 45.44 133.47 44.32 128.31 44.42C123.8 44.51 120.16 45.5 117.74 46.36C117.81 69.3 117.88 95.55 117.96 118.49Z" fill="white"/>
</g>
<defs>
<clipPath id="clip0_29_576">
<rect width="257.93" height="257.93" fill="white"/>
</clipPath>
</defs>
</svg>
