<svg width="23" height="22" viewBox="0 0 23 22" fill="none" xmlns="http://www.w3.org/2000/svg">
<g clip-path="url(#clip0_1_1183)">
<path d="M13.3592 14.4564H9.68798C8.72763 14.4564 7.76728 14.4564 6.80601 14.4564C6.15803 14.4564 6.08458 14.3949 5.93398 13.7367C5.24881 10.7255 4.56271 7.71526 3.87104 4.68357L3.03806 1.03072C3.03806 1.03072 1.63612 1.03267 1.42694 1.03267C1.15176 1.03267 0.879368 1.03267 0.606975 1.02974C0.383855 1.02682 0.00919844 0.958557 -9.82437e-05 0.522672C-0.00288725 0.376402 0.0342995 0.260361 0.112392 0.176499C0.214655 0.0663091 0.393152 0.00487567 0.615342 0.00390054C1.03369 0.000975134 1.45204 0 1.87039 0C2.3343 0 2.79727 0.000975134 3.26118 0.0029254C3.73624 0.00487567 3.84687 0.0955631 3.95564 0.573379C4.05419 1.00341 4.1518 1.43345 4.24942 1.86348C4.37027 2.39493 4.4902 2.9254 4.61199 3.45685C4.63616 3.56412 4.66591 3.66358 4.69752 3.76889C4.71146 3.81667 4.72634 3.86543 4.74121 3.91809L4.82581 4.21355C4.82581 4.21355 18.134 4.21355 22.0461 4.21355C22.0898 4.21355 22.1344 4.21355 22.1781 4.21258C22.2181 4.21258 22.259 4.2116 22.2989 4.2116C22.3863 4.2116 22.4495 4.2155 22.5053 4.22233C22.6931 4.24768 22.8363 4.3296 22.92 4.45734C23.0018 4.58215 23.0213 4.74793 22.9776 4.93515C22.2301 8.13457 21.5366 11.0804 20.857 13.9434C20.7724 14.2984 20.6757 14.4544 20.0975 14.4554C19.0906 14.4573 18.0838 14.4573 17.077 14.4573H13.3583L13.3592 14.4564ZM13.2588 13.3964C15.4017 13.3964 17.3494 13.4003 19.2124 13.4071C19.7368 13.4071 20.0333 13.1594 20.1533 12.629C20.3699 11.6743 20.5995 10.704 20.8217 9.76597C20.9379 9.27548 21.055 8.78401 21.1694 8.29352C21.3023 7.72696 21.4316 7.16041 21.5626 6.58411C21.6231 6.32082 21.862 5.27548 21.862 5.27548H5.17165V5.68991C5.17165 5.72111 5.17072 5.74647 5.16979 5.76792C5.167 5.82935 5.16421 5.89956 5.18373 5.9844C5.32411 6.60166 5.46635 7.21892 5.60859 7.83618C5.97023 9.41004 6.34489 11.0375 6.69352 12.6426C6.8404 13.3174 7.27642 13.4042 7.63992 13.4042C9.51692 13.4003 11.3883 13.3974 13.2588 13.3974V13.3964Z" fill="black"/>
<path d="M7.67068 22C6.97808 22 6.33382 21.7211 5.85504 21.216C5.37254 20.707 5.10758 20.0215 5.11037 19.2852C5.11502 17.8323 6.28919 16.6056 7.6744 16.6056C9.06239 16.6075 10.2431 17.8401 10.2561 19.2969C10.2626 20.0059 9.99857 20.6787 9.51421 21.1916C9.02149 21.7123 8.36793 22 7.67347 22H7.67068ZM7.67254 17.6636C6.8191 17.6636 6.09489 18.4154 6.09117 19.3057C6.08745 20.2009 6.80702 20.9634 7.66138 20.9712H7.67347C8.52133 20.9712 9.24368 20.2175 9.25112 19.3252C9.25484 18.8874 9.09493 18.4739 8.80023 18.1599C8.50273 17.843 8.10577 17.6665 7.68184 17.6636H7.67161H7.67254Z" fill="black"/>
<path d="M18.454 22C17.7558 22 17.1079 21.7231 16.6291 21.2209C16.1503 20.7187 15.8863 20.038 15.8872 19.3067C15.8872 17.8323 17.0307 16.6212 18.4336 16.6065H18.4577C19.1262 16.6065 19.7667 16.8923 20.2594 17.413C20.755 17.9347 21.0264 18.6124 21.0236 19.3194C21.0171 20.7947 19.8681 21.9981 18.4615 22.001H18.454V22ZM18.4438 17.6646C17.6024 17.6646 16.8968 18.3793 16.8708 19.2579C16.8438 20.1648 17.5234 20.9332 18.3862 20.9703C18.4066 20.9703 18.428 20.9712 18.4484 20.9712C19.2851 20.9712 19.9861 20.2526 20.0112 19.3691C20.0382 18.431 19.3883 17.6987 18.5005 17.6655C18.481 17.6655 18.4624 17.6646 18.4438 17.6646Z" fill="black"/>
</g>
<defs>
<clipPath id="clip0_1_1183">
<rect width="23" height="22" fill="white"/>
</clipPath>
</defs>
</svg>
